Coordinates
version=1
nRows=5
nColumns=40
inDegrees=yes

Units are S.I. units (second, meters, Newtons, ...)
If the header above contains a line with 'inDegrees', this indicates whether rotational values are in degrees (yes) or radians (no).

endheader
time	pelvis_tilt	pelvis_list	pelvis_rotation	pelvis_tx	pelvis_ty	pelvis_tz	hip_flexion_r	hip_adduction_r	hip_rotation_r	knee_angle_r	knee_angle_r_beta	ankle_angle_r	subtalar_angle_r	mtp_angle_r	hip_flexion_l	hip_adduction_l	hip_rotation_l	knee_angle_l	knee_angle_l_beta	ankle_angle_l	subtalar_angle_l	mtp_angle_l	lumbar_extension	lumbar_bending	lumbar_rotation	arm_flex_r	arm_add_r	arm_rot_r	elbow_flex_r	pro_sup_r	wrist_flex_r	wrist_dev_r	arm_flex_l	arm_add_l	arm_rot_l	elbow_flex_l	pro_sup_l	wrist_flex_l	wrist_dev_l
      3.62500000	    -19.73791547	      2.12429707	      7.11074857	     -0.28909151	      0.86629268	     -0.99130406	     22.05291330	    -17.83691414	     -9.23640815	     86.57889413	      1.51108677	     -7.81209155	      0.00000000	      0.00000000	     56.31266500	      3.78952477	     -6.84441453	     71.28269872	      1.24411779	     21.61518925	      0.00000000	      0.00000000	      2.19851627	    -13.16715119	     -9.56330954	     89.92755490	     -7.19429723	     41.19106763	     52.30722923	     80.32087660	      0.00000000	      0.00000000	     89.95286259	    -14.61465966	     38.67185660	     58.25399590	     77.69068704	      0.00000000	      0.00000000
      3.63000000	    -19.68827398	      2.15496434	      7.00887597	     -0.28912492	      0.86624210	     -0.99100312	     22.08037368	    -17.65281592	     -8.92048954	     86.52152120	      1.51008542	     -8.00811632	      0.00000000	      0.00000000	     56.23277487	      3.75934292	     -6.83232553	     71.22179623	      1.24305484	     21.73250855	      0.00000000	      0.00000000	      2.15583950	    -13.18438387	     -9.51953749	     89.92840912	     -7.16931975	     41.20815024	     52.19457144	     84.46382646	      0.00000000	      0.00000000	     89.95261715	    -14.72269445	     38.43933580	     58.27212691	     81.65435662	      0.00000000	      0.00000000
      3.63500000	    -19.70834045	      2.15172493	      7.03534569	     -0.28924804	      0.86596985	     -0.99096724	     22.12299161	    -17.60169199	     -8.88810769	     86.53220339	      1.51027186	     -7.92918715	      0.00000000	      0.00000000	     56.28806997	      3.83760006	     -6.73472226	     71.23995700	      1.24337181	     21.69522102	      0.00000000	      0.00000000	      2.17977720	    -13.17046820	     -9.53248699	     89.92858641	     -7.15522381	     41.44591024	     52.18532410	     80.51224258	      0.00000000	      0.00000000	     89.95267267	    -14.71356272	     38.62503904	     58.31266663	     78.03138707	      0.00000000	      0.00000000
      3.64000000	    -19.70735411	      2.15141800	      7.00950466	     -0.28932946	      0.86568685	     -0.99082675	     22.16643425	    -17.52659290	     -8.80630192	     86.53615862	      1.51034089	     -7.95263484	      0.00000000	      0.00000000	     56.31613074	      3.82807777	     -6.70503250	     71.29422702	      1.24431900	     21.78726909	      0.00000000	      0.00000000	      2.17345770	    -13.15222481	     -9.52751992	     89.92854956	     -7.10070075	     41.13363906	     52.13155413	     84.72518222	      0.00000000	      0.00000000	     89.95265388	    -14.76978595	     38.48133891	     58.34196465	     80.49541349	      0.00000000	      0.00000000
      3.64500000	    -19.75306367	      2.10302919	      7.05497249	     -0.28940030	      0.86531986	     -0.99077449	     22.20249546	    -17.43141566	     -8.83683622	     86.51030457	      1.50988965	     -7.74695383	      0.00000000	      0.00000000	     56.43121974	      3.87829692	     -6.56204776	     71.38906414	      1.24597422	     21.70184263	      0.00000000	      0.00000000	      2.24192270	    -13.10266284	     -9.49551841	     89.92817238	     -7.13602894	     41.28587985	     52.12312144	     80.49915151	      0.00000000	      0.00000000	     89.95301815	    -14.65835480	     38.72376654	     58.22050436	     76.85140334	      0.00000000	      0.00000000
